<svg width="26" height="26" viewBox="0 0 26 26" fill="none" xmlns="http://www.w3.org/2000/svg">
<g clip-path="url(#clip0_111_355)">
<path d="M21.6775 16.6617C20.345 16.6617 19.0558 16.445 17.8533 16.055C17.4742 15.925 17.0517 16.0225 16.7592 16.315L15.0583 18.4492C11.9925 16.9867 9.12167 14.2242 7.59417 11.05L9.70667 9.25167C9.99917 8.94833 10.0858 8.52583 9.96667 8.14667C9.56583 6.94417 9.36 5.655 9.36 4.3225C9.36 3.7375 8.8725 3.25 8.2875 3.25H4.53917C3.95417 3.25 3.25 3.51 3.25 4.3225C3.25 14.3867 11.6242 22.75 21.6775 22.75C22.4467 22.75 22.75 22.0675 22.75 21.4717V17.7342C22.75 17.1492 22.2625 16.6617 21.6775 16.6617Z" fill="#4A4A4A"/>
</g>
<defs>
<clipPath id="clip0_111_355">
<rect width="26" height="26" fill="white"/>
</clipPath>
</defs>
</svg>
