<svg width="246" height="259" viewBox="0 0 246 259" fill="none" xmlns="http://www.w3.org/2000/svg">
<g filter="url(#filter0_d_106_6232)">
<path d="M4 10C4 4.47715 8.47715 0 14 0H232C237.523 0 242 4.47715 242 10V228C242 233.523 237.523 238 232 238H141.979C139.739 238 137.564 238.752 135.803 240.135L123.2 250.03C122.475 250.599 121.455 250.599 120.73 250.03L108.128 240.135C106.366 238.752 104.191 238 101.952 238H14C8.47715 238 4 233.523 4 228V10Z" fill="#4A4A4A"/>
</g>
<path d="M39.404 164.2H35.372V174H37.192V171.172H39.404C41.98 171.172 43.576 169.842 43.576 167.686C43.576 165.516 41.98 164.2 39.404 164.2ZM39.32 169.632H37.192V165.74H39.32C40.916 165.74 41.742 166.454 41.742 167.686C41.742 168.918 40.916 169.632 39.32 169.632ZM52.0744 170.304C52.0744 167.966 50.4784 166.44 48.2944 166.44C46.0684 166.44 44.4304 168.036 44.4304 170.262C44.4304 172.488 46.0544 174.098 48.5604 174.098C49.8484 174.098 50.8984 173.678 51.5704 172.88L50.6324 171.802C50.1004 172.348 49.4424 172.614 48.6024 172.614C47.3004 172.614 46.3904 171.914 46.1804 170.822H52.0464C52.0604 170.654 52.0744 170.444 52.0744 170.304ZM48.2944 167.84C49.4424 167.84 50.2684 168.582 50.4084 169.66H46.1664C46.3344 168.568 47.1604 167.84 48.2944 167.84ZM62.7014 174H64.7874L62.3234 170.136L64.5914 166.524H62.7294L60.8954 169.548H59.6214V166.524H57.8854V169.548H56.5974L54.7774 166.524H52.9154L55.1834 170.136L52.7334 174H54.8054L56.6254 171.004H57.8854V174H59.6214V171.004H60.8814L62.7014 174ZM66.0881 174H67.6981L71.8141 169.072V174H73.5641V166.524H71.9681L67.8381 171.452V166.524H66.0881V174ZM84.8502 174L84.8362 166.524H83.1982L80.4122 171.2L77.7522 166.524H75.9182V174H77.5142V169.03L79.9922 173.216H80.7482L83.2682 169.044V174H84.8502ZM95.2106 166.44C94.1886 166.44 93.3206 166.79 92.7326 167.504V166.524H91.0666V176.716H92.8166V173.09C93.4186 173.776 94.2586 174.098 95.2106 174.098C97.3946 174.098 99.0046 172.586 99.0046 170.262C99.0046 167.952 97.3946 166.44 95.2106 166.44ZM95.0146 172.6C93.7546 172.6 92.7886 171.69 92.7886 170.262C92.7886 168.834 93.7546 167.924 95.0146 167.924C96.2746 167.924 97.2266 168.834 97.2266 170.262C97.2266 171.69 96.2746 172.6 95.0146 172.6ZM103.437 166.44C102.233 166.44 101.071 166.748 100.273 167.364L100.959 168.638C101.519 168.176 102.387 167.896 103.227 167.896C104.473 167.896 105.089 168.498 105.089 169.52V169.632H103.157C100.889 169.632 100.049 170.612 100.049 171.858C100.049 173.16 101.127 174.098 102.835 174.098C103.955 174.098 104.767 173.734 105.187 173.09V174H106.839V169.618C106.839 167.462 105.593 166.44 103.437 166.44ZM103.199 172.824C102.303 172.824 101.771 172.418 101.771 171.788C101.771 171.242 102.093 170.794 103.283 170.794H105.089V171.662C104.795 172.432 104.053 172.824 103.199 172.824ZM113.05 166.888C111.902 166.888 110.922 167.35 110.264 168.148C110.418 166.524 111.272 165.684 113.078 165.306L116.228 164.662L115.976 163.094L112.504 163.836C109.844 164.396 108.584 166.146 108.584 169.142C108.584 172.404 110.096 174.14 112.658 174.14C115.01 174.14 116.648 172.67 116.648 170.472C116.648 168.358 115.192 166.888 113.05 166.888ZM112.7 172.726C111.412 172.726 110.516 171.816 110.516 170.514C110.516 169.212 111.398 168.372 112.7 168.372C113.988 168.372 114.856 169.212 114.856 170.514C114.856 171.802 113.988 172.726 112.7 172.726ZM121.674 174.098C123.998 174.098 125.664 172.502 125.664 170.262C125.664 168.022 123.998 166.44 121.674 166.44C119.378 166.44 117.698 168.022 117.698 170.262C117.698 172.502 119.378 174.098 121.674 174.098ZM121.674 172.6C120.414 172.6 119.462 171.69 119.462 170.262C119.462 168.834 120.414 167.924 121.674 167.924C122.948 167.924 123.9 168.834 123.9 170.262C123.9 171.69 122.948 172.6 121.674 172.6ZM133.041 166.524H126.041V168.008H128.673V174H130.423V168.008H133.041V166.524ZM137.951 168.988L136.061 168.974V166.524H134.311V174L137.699 174.014C139.743 174.028 140.891 173.09 140.891 171.452C140.891 169.898 139.869 168.988 137.951 168.988ZM141.857 174H143.607V166.524H141.857V174ZM137.545 172.726L136.061 172.712V170.178L137.545 170.192C138.581 170.206 139.127 170.57 139.127 171.424C139.127 172.292 138.567 172.74 137.545 172.726ZM146.491 168.764C147.121 168.764 147.639 168.274 147.639 167.602C147.639 166.902 147.121 166.44 146.491 166.44C145.861 166.44 145.343 166.902 145.343 167.602C145.343 168.274 145.861 168.764 146.491 168.764ZM146.491 174.098C147.121 174.098 147.639 173.608 147.639 172.936C147.639 172.236 147.121 171.774 146.491 171.774C145.861 171.774 145.343 172.236 145.343 172.936C145.343 173.608 145.861 174.098 146.491 174.098ZM35.526 188.2V198H36.912V189.418H42.596V198H43.968V188.2H35.526ZM54.052 188.2V192.414H48.424V188.2H47.024V198H48.424V193.632H54.052V198H55.452V188.2H54.052ZM57.7804 194.738H61.5464V193.576H57.7804V194.738ZM63.8678 188.2V198H65.2538V189.418H70.9378V198H72.3098V188.2H63.8678ZM82.0998 188.2H74.0218V189.418H77.3678V198H78.7398V189.418H82.0998V188.2ZM90.7112 198.112C92.9932 198.112 94.7012 196.292 94.7012 193.1C94.7012 189.908 92.9932 188.088 90.7112 188.088C88.4152 188.088 86.7072 189.908 86.7072 193.1C86.7072 196.292 88.4152 198.112 90.7112 198.112ZM90.7112 196.866C89.1712 196.866 88.1072 195.606 88.1072 193.1C88.1072 190.594 89.1712 189.334 90.7112 189.334C92.2372 189.334 93.3012 190.594 93.3012 193.1C93.3012 195.606 92.2372 196.866 90.7112 196.866ZM99.223 188.088C97.277 188.088 95.765 189.292 95.765 191.182C95.765 192.988 97.165 194.15 99.111 194.15C100.329 194.15 101.365 193.716 101.939 192.862V193.212C101.939 195.662 100.679 196.908 98.691 196.908C97.977 196.908 97.319 196.782 96.801 196.446L96.269 197.538C96.899 197.93 97.781 198.112 98.705 198.112C101.449 198.112 103.339 196.32 103.339 192.974C103.339 189.852 101.855 188.088 99.223 188.088ZM99.349 193.016C97.977 193.016 97.123 192.274 97.123 191.126C97.123 189.964 98.005 189.222 99.279 189.222C100.805 189.222 101.617 190.104 101.617 191.112C101.617 192.19 100.693 193.016 99.349 193.016ZM105.61 192.428C106.114 192.428 106.534 192.022 106.534 191.462C106.534 190.902 106.114 190.51 105.61 190.51C105.092 190.51 104.658 190.902 104.658 191.462C104.658 192.022 105.092 192.428 105.61 192.428ZM105.61 198.084C106.114 198.084 106.534 197.678 106.534 197.118C106.534 196.558 106.114 196.166 105.61 196.166C105.092 196.166 104.658 196.558 104.658 197.118C104.658 197.678 105.092 198.084 105.61 198.084ZM111.862 198.112C114.144 198.112 115.852 196.292 115.852 193.1C115.852 189.908 114.144 188.088 111.862 188.088C109.566 188.088 107.858 189.908 107.858 193.1C107.858 196.292 109.566 198.112 111.862 198.112ZM111.862 196.866C110.322 196.866 109.258 195.606 109.258 193.1C109.258 190.594 110.322 189.334 111.862 189.334C113.388 189.334 114.452 190.594 114.452 193.1C114.452 195.606 113.388 196.866 111.862 196.866ZM121.199 198.112C123.481 198.112 125.189 196.292 125.189 193.1C125.189 189.908 123.481 188.088 121.199 188.088C118.903 188.088 117.195 189.908 117.195 193.1C117.195 196.292 118.903 198.112 121.199 198.112ZM121.199 196.866C119.659 196.866 118.595 195.606 118.595 193.1C118.595 190.594 119.659 189.334 121.199 189.334C122.725 189.334 123.789 190.594 123.789 193.1C123.789 195.606 122.725 196.866 121.199 196.866ZM130.419 194.738H134.185V193.576H130.419V194.738ZM138.852 188.2V189.418H141.064V198H142.45V188.2H138.852ZM150.586 192.862C151.482 192.442 151.972 191.714 151.972 190.748C151.972 189.11 150.544 188.088 148.416 188.088C146.302 188.088 144.888 189.11 144.888 190.748C144.888 191.714 145.364 192.442 146.26 192.862C145.154 193.282 144.538 194.108 144.538 195.228C144.538 197.006 146.036 198.112 148.416 198.112C150.81 198.112 152.322 197.006 152.322 195.228C152.322 194.108 151.706 193.296 150.586 192.862ZM148.416 189.222C149.732 189.222 150.6 189.824 150.6 190.804C150.6 191.77 149.774 192.372 148.416 192.372C147.072 192.372 146.274 191.77 146.274 190.804C146.274 189.824 147.1 189.222 148.416 189.222ZM148.416 196.978C146.862 196.978 145.938 196.292 145.938 195.186C145.938 194.108 146.862 193.436 148.416 193.436C149.97 193.436 150.922 194.108 150.922 195.186C150.922 196.292 149.97 196.978 148.416 196.978ZM154.528 192.428C155.032 192.428 155.452 192.022 155.452 191.462C155.452 190.902 155.032 190.51 154.528 190.51C154.01 190.51 153.576 190.902 153.576 191.462C153.576 192.022 154.01 192.428 154.528 192.428ZM154.528 198.084C155.032 198.084 155.452 197.678 155.452 197.118C155.452 196.558 155.032 196.166 154.528 196.166C154.01 196.166 153.576 196.558 153.576 197.118C153.576 197.678 154.01 198.084 154.528 198.084ZM160.78 198.112C163.062 198.112 164.77 196.292 164.77 193.1C164.77 189.908 163.062 188.088 160.78 188.088C158.484 188.088 156.776 189.908 156.776 193.1C156.776 196.292 158.484 198.112 160.78 198.112ZM160.78 196.866C159.24 196.866 158.176 195.606 158.176 193.1C158.176 190.594 159.24 189.334 160.78 189.334C162.306 189.334 163.37 190.594 163.37 193.1C163.37 195.606 162.306 196.866 160.78 196.866ZM170.117 198.112C172.399 198.112 174.107 196.292 174.107 193.1C174.107 189.908 172.399 188.088 170.117 188.088C167.821 188.088 166.113 189.908 166.113 193.1C166.113 196.292 167.821 198.112 170.117 198.112ZM170.117 196.866C168.577 196.866 167.513 195.606 167.513 193.1C167.513 190.594 168.577 189.334 170.117 189.334C171.643 189.334 172.707 190.594 172.707 193.1C172.707 195.606 171.643 196.866 170.117 196.866Z" fill="white"/>
<path d="M41.364 106.4H38.886V103.95H37.388V106.4H34.91V107.8H37.388V110.25H38.886V107.8H41.364V106.4ZM42.5131 102.2V105.406H44.2071V103.74H48.0571L44.3751 112H46.3211L50.1291 103.418V102.2H42.5131ZM57.3918 114.716H59.0578C57.8958 112.672 57.4058 110.558 57.4058 108.164C57.4058 105.77 57.8958 103.656 59.0578 101.612H57.3918C56.2998 103.278 55.6838 105.588 55.6838 108.164C55.6838 110.74 56.2998 113.022 57.3918 114.716ZM68.4399 108.234H66.7039V106.26H64.9959V108.234H61.7899L66.3399 102.2H64.3939L59.5639 108.514V109.774H64.9399V112H66.7039V109.774H68.4399V108.234ZM72.4415 102.06C70.4395 102.06 68.8575 103.292 68.8575 105.238C68.8575 107.072 70.2995 108.248 72.2315 108.248C73.3235 108.248 74.2615 107.912 74.8495 107.226V107.24C74.8495 109.466 73.6875 110.614 71.8395 110.614C71.1535 110.614 70.5095 110.488 69.9775 110.138L69.3055 111.51C69.9635 111.93 70.9015 112.14 71.8815 112.14C74.7235 112.14 76.6835 110.292 76.6835 106.932C76.6835 103.782 75.1155 102.06 72.4415 102.06ZM72.5815 106.82C71.3915 106.82 70.6215 106.176 70.6215 105.154C70.6215 104.132 71.4055 103.488 72.5395 103.488C73.8415 103.488 74.5695 104.216 74.5695 105.14C74.5695 106.106 73.7575 106.82 72.5815 106.82ZM81.2188 102.06C79.2168 102.06 77.6348 103.292 77.6348 105.238C77.6348 107.072 79.0768 108.248 81.0088 108.248C82.1008 108.248 83.0388 107.912 83.6268 107.226V107.24C83.6268 109.466 82.4648 110.614 80.6168 110.614C79.9308 110.614 79.2868 110.488 78.7548 110.138L78.0828 111.51C78.7408 111.93 79.6788 112.14 80.6588 112.14C83.5008 112.14 85.4608 110.292 85.4608 106.932C85.4608 103.782 83.8928 102.06 81.2188 102.06ZM81.3588 106.82C80.1688 106.82 79.3988 106.176 79.3988 105.154C79.3988 104.132 80.1828 103.488 81.3168 103.488C82.6188 103.488 83.3468 104.216 83.3468 105.14C83.3468 106.106 82.5348 106.82 81.3588 106.82ZM88.0502 114.716C89.1562 113.022 89.7582 110.74 89.7582 108.164C89.7582 105.588 89.1562 103.278 88.0502 101.612H86.3842C87.5462 103.656 88.0502 105.77 88.0502 108.164C88.0502 110.558 87.5462 112.672 86.3842 114.716H88.0502ZM99.6005 106.246L101.981 103.418V102.2H95.3025V103.726H99.7545L97.5285 106.372V107.618H98.4245C99.9085 107.618 100.553 108.192 100.553 109.074C100.553 109.984 99.7825 110.558 98.4805 110.558C97.3745 110.558 96.3105 110.18 95.6105 109.592L94.8265 111.006C95.7365 111.72 97.1225 112.14 98.5085 112.14C101.141 112.14 102.387 110.712 102.387 109.06C102.387 107.59 101.449 106.484 99.6005 106.246ZM112.313 108.234H110.577V106.26H108.869V108.234H105.663L110.213 102.2H108.267L103.437 108.514V109.774H108.813V112H110.577V109.774H112.313V108.234ZM121.815 108.234H120.079V106.26H118.371V108.234H115.165L119.715 102.2H117.769L112.939 108.514V109.774H118.315V112H120.079V109.774H121.815V108.234ZM130.902 105.952C129.81 105.952 128.872 106.288 128.284 106.974V106.96C128.284 104.734 129.446 103.586 131.294 103.586C131.98 103.586 132.624 103.712 133.156 104.062L133.828 102.69C133.17 102.27 132.232 102.06 131.252 102.06C128.41 102.06 126.45 103.908 126.45 107.268C126.45 110.418 128.018 112.14 130.692 112.14C132.694 112.14 134.276 110.908 134.276 108.962C134.276 107.128 132.834 105.952 130.902 105.952ZM130.594 110.712C129.292 110.712 128.564 109.984 128.564 109.06C128.564 108.094 129.376 107.38 130.552 107.38C131.742 107.38 132.512 108.024 132.512 109.046C132.512 110.068 131.728 110.712 130.594 110.712ZM139.315 112.14C141.653 112.14 143.417 110.32 143.417 107.1C143.417 103.88 141.653 102.06 139.315 102.06C136.991 102.06 135.227 103.88 135.227 107.1C135.227 110.32 136.991 112.14 139.315 112.14ZM139.315 110.558C137.985 110.558 137.061 109.466 137.061 107.1C137.061 104.734 137.985 103.642 139.315 103.642C140.659 103.642 141.583 104.734 141.583 107.1C141.583 109.466 140.659 110.558 139.315 110.558ZM151.82 102.06C149.818 102.06 148.236 103.292 148.236 105.238C148.236 107.072 149.678 108.248 151.61 108.248C152.702 108.248 153.64 107.912 154.228 107.226V107.24C154.228 109.466 153.066 110.614 151.218 110.614C150.532 110.614 149.888 110.488 149.356 110.138L148.684 111.51C149.342 111.93 150.28 112.14 151.26 112.14C154.102 112.14 156.062 110.292 156.062 106.932C156.062 103.782 154.494 102.06 151.82 102.06ZM151.96 106.82C150.77 106.82 150 106.176 150 105.154C150 104.132 150.784 103.488 151.918 103.488C153.22 103.488 153.948 104.216 153.948 105.14C153.948 106.106 153.136 106.82 151.96 106.82ZM156.721 102.2V103.726H158.793V112H160.613V102.2H156.721Z" fill="white"/>
<path d="M38.578 142.098C40.034 142.098 41.196 141.468 41.77 140.348L40.426 139.564C39.978 140.278 39.306 140.6 38.564 140.6C37.276 140.6 36.296 139.718 36.296 138.262C36.296 136.82 37.276 135.924 38.564 135.924C39.306 135.924 39.978 136.246 40.426 136.96L41.77 136.176C41.196 135.042 40.034 134.44 38.578 134.44C36.212 134.44 34.532 136.022 34.532 138.262C34.532 140.502 36.212 142.098 38.578 142.098ZM46.5334 142.098C48.8574 142.098 50.5234 140.502 50.5234 138.262C50.5234 136.022 48.8574 134.44 46.5334 134.44C44.2374 134.44 42.5574 136.022 42.5574 138.262C42.5574 140.502 44.2374 142.098 46.5334 142.098ZM46.5334 140.6C45.2734 140.6 44.3214 139.69 44.3214 138.262C44.3214 136.834 45.2734 135.924 46.5334 135.924C47.8074 135.924 48.7594 136.834 48.7594 138.262C48.7594 139.69 47.8074 140.6 46.5334 140.6ZM56.4388 134.44C55.3468 134.44 54.4368 134.804 53.8628 135.49V134.524H52.1968V142H53.9468V138.22C53.9468 136.722 54.7868 135.966 56.0328 135.966C57.1528 135.966 57.8108 136.61 57.8108 137.94V142H59.5608V137.716C59.5608 135.462 58.2308 134.44 56.4388 134.44ZM65.7848 140.348C65.5188 140.558 65.1688 140.656 64.8048 140.656C64.1328 140.656 63.7688 140.264 63.7688 139.536V135.98H65.7708V134.58H63.7688V132.872H62.0188V134.58H60.7868V135.98H62.0188V139.578C62.0188 141.23 62.9568 142.098 64.5948 142.098C65.2248 142.098 65.8548 141.93 66.2748 141.594L65.7848 140.348ZM74.4963 138.304C74.4963 135.966 72.9003 134.44 70.7163 134.44C68.4903 134.44 66.8523 136.036 66.8523 138.262C66.8523 140.488 68.4763 142.098 70.9823 142.098C72.2703 142.098 73.3203 141.678 73.9923 140.88L73.0543 139.802C72.5223 140.348 71.8643 140.614 71.0243 140.614C69.7223 140.614 68.8123 139.914 68.6023 138.822H74.4683C74.4823 138.654 74.4963 138.444 74.4963 138.304ZM70.7163 135.84C71.8643 135.84 72.6903 136.582 72.8303 137.66H68.5883C68.7563 136.568 69.5823 135.84 70.7163 135.84ZM80.4193 134.44C79.3273 134.44 78.4173 134.804 77.8433 135.49V134.524H76.1773V142H77.9273V138.22C77.9273 136.722 78.7673 135.966 80.0133 135.966C81.1333 135.966 81.7913 136.61 81.7913 137.94V142H83.5413V137.716C83.5413 135.462 82.2113 134.44 80.4193 134.44ZM89.7653 140.348C89.4993 140.558 89.1493 140.656 88.7853 140.656C88.1133 140.656 87.7493 140.264 87.7493 139.536V135.98H89.7513V134.58H87.7493V132.872H85.9993V134.58H84.7673V135.98H85.9993V139.578C85.9993 141.23 86.9373 142.098 88.5753 142.098C89.2053 142.098 89.8353 141.93 90.2553 141.594L89.7653 140.348ZM97.8549 132.074C93.8509 132.074 91.1629 134.776 91.1629 138.444C91.1629 142.154 93.8229 144.856 97.7989 144.856C98.8349 144.856 100.039 144.632 100.893 144.198L100.515 143.078C99.6609 143.512 98.6529 143.694 97.7989 143.694C94.5789 143.694 92.4509 141.538 92.4509 138.444C92.4509 135.392 94.6069 133.222 97.8549 133.222C101.047 133.222 103.231 135.238 103.231 138.234C103.231 139.886 102.811 140.768 102.055 140.768C101.663 140.768 101.327 140.53 101.327 139.816V135.056H99.7729V135.966C99.2269 135.308 98.4149 134.972 97.4349 134.972C95.5029 134.972 94.0749 136.442 94.0749 138.514C94.0749 140.614 95.5029 142.084 97.4349 142.084C98.5549 142.084 99.4089 141.664 99.9549 140.866C100.193 141.664 100.837 142.084 101.733 142.084C103.413 142.084 104.421 140.628 104.421 138.206C104.421 134.636 101.719 132.074 97.8549 132.074ZM97.7289 140.726C96.5109 140.726 95.6569 139.872 95.6569 138.514C95.6569 137.17 96.5109 136.33 97.7289 136.33C98.9049 136.33 99.8009 137.128 99.8009 138.514C99.8009 139.914 98.9049 140.726 97.7289 140.726ZM109.029 134.44C107.825 134.44 106.663 134.748 105.865 135.364L106.551 136.638C107.111 136.176 107.979 135.896 108.819 135.896C110.065 135.896 110.681 136.498 110.681 137.52V137.632H108.749C106.481 137.632 105.641 138.612 105.641 139.858C105.641 141.16 106.719 142.098 108.427 142.098C109.547 142.098 110.359 141.734 110.779 141.09V142H112.431V137.618C112.431 135.462 111.185 134.44 109.029 134.44ZM108.791 140.824C107.895 140.824 107.363 140.418 107.363 139.788C107.363 139.242 107.685 138.794 108.875 138.794H110.681V139.662C110.387 140.432 109.645 140.824 108.791 140.824ZM120.318 131.612V135.448C119.73 134.762 118.876 134.44 117.91 134.44C115.74 134.44 114.13 135.938 114.13 138.262C114.13 140.586 115.74 142.098 117.91 142.098C118.932 142.098 119.8 141.748 120.388 141.034V142H122.068V131.612H120.318ZM118.12 140.6C116.86 140.6 115.894 139.69 115.894 138.262C115.894 136.834 116.86 135.924 118.12 135.924C119.38 135.924 120.346 136.834 120.346 138.262C120.346 139.69 119.38 140.6 118.12 140.6ZM129.929 131.612V135.448C129.341 134.762 128.487 134.44 127.521 134.44C125.351 134.44 123.741 135.938 123.741 138.262C123.741 140.586 125.351 142.098 127.521 142.098C128.543 142.098 129.411 141.748 129.999 141.034V142H131.679V131.612H129.929ZM127.731 140.6C126.471 140.6 125.505 139.69 125.505 138.262C125.505 136.834 126.471 135.924 127.731 135.924C128.991 135.924 129.957 136.834 129.957 138.262C129.957 139.69 128.991 140.6 127.731 140.6ZM143.404 134.44C142.214 134.44 141.206 134.916 140.604 135.686C140.086 134.846 139.176 134.44 138.084 134.44C137.062 134.44 136.194 134.804 135.634 135.476V134.524H133.968V142H135.718V138.206C135.718 136.722 136.502 135.966 137.664 135.966C138.728 135.966 139.344 136.61 139.344 137.94V142H141.094V138.206C141.094 136.722 141.892 135.966 143.04 135.966C144.104 135.966 144.72 136.61 144.72 137.94V142H146.47V137.716C146.47 135.462 145.21 134.44 143.404 134.44ZM151.563 134.44C150.359 134.44 149.197 134.748 148.399 135.364L149.085 136.638C149.645 136.176 150.513 135.896 151.353 135.896C152.599 135.896 153.215 136.498 153.215 137.52V137.632H151.283C149.015 137.632 148.175 138.612 148.175 139.858C148.175 141.16 149.253 142.098 150.961 142.098C152.081 142.098 152.893 141.734 153.313 141.09V142H154.965V137.618C154.965 135.462 153.719 134.44 151.563 134.44ZM151.325 140.824C150.429 140.824 149.897 140.418 149.897 139.788C149.897 139.242 150.219 138.794 151.409 138.794H153.215V139.662C152.921 140.432 152.179 140.824 151.325 140.824ZM158.877 135.616V134.524H157.211V142H158.961V138.374C158.961 136.848 159.801 136.064 161.131 136.064C161.257 136.064 161.383 136.078 161.537 136.106V134.44C160.291 134.44 159.381 134.832 158.877 135.616ZM168.663 142H170.791L167.375 137.66L170.497 134.524H168.397L164.771 137.884V131.612H163.021V142H164.771V140.026L166.073 138.794L168.663 142ZM178.635 138.304C178.635 135.966 177.039 134.44 174.855 134.44C172.629 134.44 170.991 136.036 170.991 138.262C170.991 140.488 172.615 142.098 175.121 142.098C176.409 142.098 177.459 141.678 178.131 140.88L177.193 139.802C176.661 140.348 176.003 140.614 175.163 140.614C173.861 140.614 172.951 139.914 172.741 138.822H178.607C178.621 138.654 178.635 138.444 178.635 138.304ZM174.855 135.84C176.003 135.84 176.829 136.582 176.969 137.66H172.727C172.895 136.568 173.721 135.84 174.855 135.84ZM184.32 140.348C184.054 140.558 183.704 140.656 183.34 140.656C182.668 140.656 182.304 140.264 182.304 139.536V135.98H184.306V134.58H182.304V132.872H180.554V134.58H179.322V135.98H180.554V139.578C180.554 141.23 181.492 142.098 183.13 142.098C183.76 142.098 184.39 141.93 184.81 141.594L184.32 140.348ZM188.56 142.098C190.66 142.098 191.948 141.188 191.948 139.788C191.948 136.862 187.328 138.206 187.328 136.694C187.328 136.204 187.832 135.854 188.896 135.854C189.61 135.854 190.324 135.994 191.038 136.414L191.71 135.084C191.038 134.678 189.904 134.44 188.91 134.44C186.894 134.44 185.62 135.364 185.62 136.778C185.62 139.76 190.24 138.416 190.24 139.844C190.24 140.362 189.778 140.67 188.672 140.67C187.734 140.67 186.726 140.362 186.068 139.928L185.396 141.258C186.068 141.734 187.314 142.098 188.56 142.098ZM194.015 142.098C194.645 142.098 195.163 141.608 195.163 140.936C195.163 140.236 194.645 139.774 194.015 139.774C193.385 139.774 192.867 140.236 192.867 140.936C192.867 141.608 193.385 142.098 194.015 142.098ZM198.539 135.616V134.524H196.873V142H198.623V138.374C198.623 136.848 199.463 136.064 200.793 136.064C200.919 136.064 201.045 136.078 201.199 136.106V134.44C199.953 134.44 199.043 134.832 198.539 135.616ZM208.24 134.524V138.304C208.24 139.802 207.414 140.558 206.196 140.558C205.09 140.558 204.446 139.914 204.446 138.556V134.524H202.696V138.794C202.696 141.048 203.998 142.098 205.916 142.098C206.882 142.098 207.764 141.734 208.324 141.048V142H209.99V134.524H208.24Z" fill="white"/>
<g clip-path="url(#clip0_106_6232)">
<path d="M65.5003 56.8491C65.5003 59.6559 64.539 62.007 62.6164 63.9025C60.6959 65.7974 58.307 66.7452 55.4498 66.7458H47.0282V53.3155H52.4641V61.8529H55.4498C56.8888 61.8529 58.0612 61.3953 58.9672 60.48C59.8745 59.5679 60.3275 58.3576 60.3262 56.8491C60.3262 55.3404 59.8732 54.1288 58.9672 53.2142C58.0619 52.3003 56.8894 51.8433 55.4498 51.8433H44.0424C42.4453 51.8659 40.8659 51.5203 39.4378 50.8356C39.3459 50.7917 39.254 50.7438 39.164 50.6961C38.318 50.2426 37.5469 49.6717 36.8758 49.002C35.0536 47.2196 34.023 44.8317 34 42.3385V41.5717C34.08 38.9273 35.0386 36.7004 36.8759 34.8911C38.7964 32.9963 41.1852 32.0485 44.0424 32.0479H52.4641V45.48H47.0282V36.9408H44.0424C42.6035 36.9408 41.4311 37.3978 40.5251 38.3117C39.6178 39.2257 39.1641 40.4367 39.1641 41.9446C39.1641 43.4551 39.6178 44.6667 40.5251 45.5794C41.4304 46.4934 42.6028 46.951 44.0424 46.9523H55.4498C58.3077 46.9523 60.6965 47.8987 62.6164 49.7917C64.539 51.6865 65.5003 54.039 65.5003 56.8491Z" fill="white"/>
<path d="M85.0401 32H80.1815L75.0332 46.9261H79.357L80.0255 44.7724H85.2183L85.887 46.9261H90.1885L85.0401 32ZM81.0507 41.4888L82.6108 36.4139L84.1932 41.4888H81.0507Z" fill="#E97522"/>
<path d="M97.678 32H91.3262V41.9091H95.427V35.6889H97.678C98.1714 35.6721 98.6629 35.7556 99.12 35.9339C99.5772 36.1122 99.9896 36.3812 100.33 36.7231C101.013 37.4127 101.355 38.326 101.355 39.4631C101.355 40.6004 101.014 41.5137 100.33 42.203C99.9897 42.545 99.5772 42.814 99.1201 42.9923C98.6629 43.1706 98.1714 43.2541 97.678 43.2372H91.3262V46.9261H97.678C99.8321 46.9261 101.634 46.2118 103.082 44.7831C104.531 43.3545 105.256 41.5811 105.256 39.4631C105.256 37.3451 104.531 35.5718 103.083 34.143C101.634 32.7142 99.8324 31.9999 97.678 32Z" fill="#E97522"/>
<path d="M113.455 32H107.104V35.6889H113.455C113.949 35.6721 114.44 35.7556 114.897 35.9339C115.355 36.1122 115.767 36.3811 116.108 36.7231C116.791 37.4127 117.132 38.3261 117.133 39.4631C117.133 40.6004 116.791 41.5137 116.108 42.203C115.767 42.545 115.355 42.814 114.897 42.9923C114.44 43.1706 113.949 43.254 113.455 43.2372H111.204V37.017H107.104V46.9261H113.455C115.609 46.9261 117.411 46.2118 118.86 44.7831C120.309 43.3545 121.033 41.5811 121.033 39.4631C121.033 37.3451 120.309 35.5718 118.86 34.143C117.411 32.7142 115.61 31.9999 113.455 32Z" fill="#E97522"/>
<path d="M81.0952 51.7538C81.8254 51.7354 82.5521 51.8559 83.2332 52.1085C83.9142 52.3611 84.536 52.7406 85.0625 53.225C86.1321 54.2061 86.667 55.4571 86.6671 56.9781C86.6671 58.4994 86.1322 59.7503 85.0625 60.7308C84.5361 61.2153 83.9143 61.5949 83.2332 61.8475C82.5521 62.1001 81.8254 62.2206 81.0952 62.2021H79.0224V66.6801H75.0332V51.7538H81.0952ZM81.0952 58.5773C81.305 58.5815 81.5135 58.5439 81.7073 58.4668C81.9011 58.3897 82.0759 58.2747 82.2207 58.1294C82.3736 57.9765 82.4928 57.7959 82.5714 57.5981C82.6499 57.4004 82.6861 57.1895 82.6778 56.9781C82.6868 56.7682 82.6509 56.5588 82.5723 56.3626C82.4937 56.1664 82.374 55.9877 82.2207 55.8374C82.0742 55.6948 81.8988 55.5824 81.7053 55.5072C81.5117 55.432 81.3041 55.3955 81.0952 55.4H79.0224V58.5773H81.0952Z" fill="#B1B1B1"/>
<path d="M96.6086 51.7539H100.576V66.6803H96.6086V60.9444H92.2178V66.6803H88.2285V51.7539H92.2178V57.2765H96.6086V51.7539Z" fill="#B1B1B1"/>
<path d="M116.432 64.751C114.876 66.1937 112.794 67.0003 110.627 67.0003C108.459 67.0003 106.377 66.1937 104.821 64.751C104.049 64.0344 103.439 63.1731 103.031 62.221C102.623 61.2689 102.424 60.2464 102.447 59.2175C102.424 58.1885 102.623 57.1661 103.031 56.214C103.44 55.2619 104.049 54.4006 104.821 53.684C106.377 52.2413 108.459 51.4346 110.627 51.4346C112.794 51.4346 114.876 52.2413 116.432 53.684C117.204 54.4007 117.814 55.262 118.222 56.214C118.63 57.1661 118.829 58.1886 118.806 59.2175C118.829 60.2464 118.63 61.2688 118.222 62.2209C117.814 63.173 117.204 64.0343 116.432 64.751ZM107.618 62.1282C108.326 62.8503 109.275 63.3135 110.301 63.438C111.328 63.5625 112.368 63.3406 113.242 62.8104C114.116 62.2802 114.769 61.475 115.089 60.5334C115.409 59.5919 115.376 58.5731 114.996 57.6524C114.615 56.7318 113.91 55.967 113.004 55.4898C112.097 55.0127 111.045 54.8531 110.028 55.0385C109.012 55.2239 108.094 55.7427 107.435 56.5055C106.775 57.2683 106.414 58.2274 106.414 59.2175C106.395 59.7557 106.492 60.2918 106.7 60.7926C106.907 61.2933 107.219 61.748 107.618 62.1282Z" fill="#B1B1B1"/>
<path d="M130.574 51.7539V55.4427H126.718V66.6803H122.729V55.4427H118.873V51.7539H130.574Z" fill="#B1B1B1"/>
<path d="M144.626 64.751C143.069 66.1937 140.987 67.0003 138.82 67.0003C136.653 67.0003 134.571 66.1937 133.014 64.751C132.242 64.0344 131.633 63.1731 131.224 62.221C130.816 61.2689 130.617 60.2464 130.641 59.2175C130.617 58.1886 130.816 57.1661 131.224 56.214C131.633 55.2619 132.242 54.4006 133.014 53.684C134.571 52.2413 136.653 51.4346 138.82 51.4346C140.987 51.4346 143.069 52.2413 144.626 53.684C145.398 54.4007 146.007 55.262 146.415 56.214C146.824 57.1661 147.023 58.1886 146.999 59.2175C147.023 60.2464 146.824 61.2688 146.415 62.2209C146.007 63.173 145.398 64.0343 144.626 64.751ZM135.811 62.1282C136.519 62.8503 137.468 63.3135 138.495 63.438C139.521 63.5625 140.561 63.3406 141.435 62.8104C142.309 62.2802 142.963 61.475 143.283 60.5334C143.603 59.5919 143.57 58.5731 143.189 57.6524C142.808 56.7318 142.104 55.967 141.197 55.4898C140.29 55.0127 139.238 54.8531 138.221 55.0385C137.205 55.2239 136.288 55.7427 135.628 56.5055C134.968 57.2683 134.607 58.2274 134.607 59.2175C134.589 59.7557 134.686 60.2918 134.893 60.7926C135.1 61.2933 135.413 61.748 135.811 62.1282Z" fill="#B1B1B1"/>
</g>
<defs>
<filter id="filter0_d_106_6232" x="0" y="0" width="246" height="258.457" filterUnits="userSpaceOnUse" color-interpolation-filters="sRGB">
<feFlood flood-opacity="0" result="BackgroundImageFix"/>
<feColorMatrix in="SourceAlpha" type="matrix" values="0 0 0 0 0 0 0 0 0 0 0 0 0 0 0 0 0 0 127 0" result="hardAlpha"/>
<feOffset dy="4"/>
<feGaussianBlur stdDeviation="2"/>
<feComposite in2="hardAlpha" operator="out"/>
<feColorMatrix type="matrix" values="0 0 0 0 0 0 0 0 0 0 0 0 0 0 0 0 0 0 0.25 0"/>
<feBlend mode="normal" in2="BackgroundImageFix" result="effect1_dropShadow_106_6232"/>
<feBlend mode="normal" in="SourceGraphic" in2="effect1_dropShadow_106_6232" result="shape"/>
</filter>
<clipPath id="clip0_106_6232">
<rect width="113" height="35" fill="white" transform="translate(34 32)"/>
</clipPath>
</defs>
</svg>
